<?xml version="1.0" encoding="UTF-8" standalone="no"?>
<!-- Created with Inkscape (http://www.inkscape.org/) -->

<svg
   xmlns:dc="http://purl.org/dc/elements/1.1/"
   xmlns:cc="http://creativecommons.org/ns#"
   xmlns:rdf="http://www.w3.org/1999/02/22-rdf-syntax-ns#"
   xmlns:svg="http://www.w3.org/2000/svg"
   xmlns="http://www.w3.org/2000/svg"
   xmlns:sodipodi="http://sodipodi.sourceforge.net/DTD/sodipodi-0.dtd"
   xmlns:inkscape="http://www.inkscape.org/namespaces/inkscape"
   id="svg2"
   version="1.1"
   inkscape:version="0.47 r22583"
   width="285.66495"
   height="372.45874"
   xml:space="preserve"
   sodipodi:docname="KakalLogo.svg"><metadata
     id="metadata8"><rdf:RDF><cc:Work
         rdf:about=""><dc:format>image/svg+xml</dc:format><dc:type
           rdf:resource="http://purl.org/dc/dcmitype/StillImage" /><dc:title></dc:title></cc:Work></rdf:RDF></metadata><defs
     id="defs6"><inkscape:perspective
       sodipodi:type="inkscape:persp3d"
       inkscape:vp_x="0 : 0.5 : 1"
       inkscape:vp_y="0 : 1000 : 0"
       inkscape:vp_z="1 : 0.5 : 1"
       inkscape:persp3d-origin="0.5 : 0.33333333 : 1"
       id="perspective10" /><clipPath
       clipPathUnits="userSpaceOnUse"
       id="clipPath18"><path
         d="m 23.386,294.478 0,-221.979 471.056,0 0.913,319.174 -471.969,-97.195 z"
         id="path20" /></clipPath><clipPath
       clipPathUnits="userSpaceOnUse"
       id="clipPath32"><path
         d="m 0,0 510.236,0 0,992.126 L 0,992.126 0,0 z"
         id="path34" /></clipPath><clipPath
       clipPathUnits="userSpaceOnUse"
       id="clipPath50"><path
         d="m 0,0 510.236,0 0,992.126 L 0,992.126 0,0 z"
         id="path52" /></clipPath><clipPath
       clipPathUnits="userSpaceOnUse"
       id="clipPath160"><path
         d="m 0,0 510.236,0 0,992.126 L 0,992.126 0,0 z"
         id="path162" /></clipPath><clipPath
       clipPathUnits="userSpaceOnUse"
       id="clipPath188"><path
         d="m 0,0 510.236,0 0,992.126 L 0,992.126 0,0 z"
         id="path190" /></clipPath><clipPath
       clipPathUnits="userSpaceOnUse"
       id="clipPath214"><path
         d="m 0,0 510.236,0 0,992.126 L 0,992.126 0,0 z"
         id="path216" /></clipPath><clipPath
       clipPathUnits="userSpaceOnUse"
       id="clipPath264"><path
         d="m 0,0 510.236,0 0,992.126 L 0,992.126 0,0 z"
         id="path266" /></clipPath></defs><sodipodi:namedview
     pagecolor="#ffffff"
     bordercolor="#666666"
     borderopacity="1"
     objecttolerance="10"
     gridtolerance="10"
     guidetolerance="10"
     inkscape:pageopacity="0"
     inkscape:pageshadow="2"
     inkscape:window-width="1280"
     inkscape:window-height="972"
     id="namedview4"
     showgrid="false"
     inkscape:zoom="0.97326216"
     inkscape:cx="142.83247"
     inkscape:cy="186.22938"
     inkscape:window-x="-8"
     inkscape:window-y="-8"
     inkscape:window-maximized="1"
     inkscape:current-layer="g12" /><g
     id="g12"
     inkscape:groupmode="layer"
     inkscape:label="Img_8730c4d6-4a98-4f6f-85a8-94634c165350"
     transform="matrix(1.25,0,0,-1.25,-168.90938,807.87715)"><g
       id="g3312"
       transform="matrix(3.1675702,0,0,3.1675702,-1190.1731,-2462.8965)"><path
         d="m 485.79,904.3986 4.035,0 -2.028,-4.606 0.738,0 1.969,4.606 0,0.55 -4.714,0 0,-0.55 z m 0.797,-6.388 0,5.177 -0.689,-0.403 0,-4.774 0.689,0 z m -4.3439,6.9385 -1.752,0 0,-0.55 1.712,0 c 0.886,0 1.338,-0.63 1.338,-1.546 l 0,-3.06 0.69,0 0,2.961 c 0,1.743 -1.024,2.195 -1.988,2.195 m -3.1731,-1e-4 -0.689,0 0,-6.938 0.689,0 0,6.938 z m -10.8524,-0.5504 4.035,0 -2.027,-4.606 0.738,0 1.968,4.606 0,0.55 -4.714,0 0,-0.55 z m 0.798,-6.388 0,5.177 -0.689,-0.403 0,-4.774 0.689,0 z m -2.3339,4.1343 0,2.804 -0.689,0 0,-3.178 0.689,0.374 z m -7.2892,2.8042 c 0.345,-0.797 0.689,-1.968 0.63,-2.45 -0.02,-0.168 -0.069,-0.354 -0.088,-0.482 0,0 -0.384,-1.9 -0.423,-2.224 l 0.688,0 0.384,1.919 c 0.275,1.368 0.827,2.804 1.87,2.804 0.806,0 1.289,-1.21 1.289,-2.223 0,-1.142 -0.433,-2.078 -1.388,-2.078 -0.265,0 -0.6,0.03 -0.905,0.227 l 0,-0.591 c 0.275,-0.097 0.571,-0.206 0.935,-0.206 0.836,0 2.067,0.57 2.067,2.666 0,1.369 -0.571,2.757 -1.939,2.757 -1.102,0 -1.545,-0.836 -1.919,-1.565 0,0 -0.157,0.66 -0.463,1.446 l -0.738,0 z m -5.1055,-4.1129 0,3.562 1.515,0 c 0.946,0 1.27,-0.699 1.27,-1.486 l 0,-3.12 0.689,0 0,3.336 c 0,1.035 -0.758,1.821 -1.899,1.821 l -3.248,0 0,-0.551 0.984,0 0,-3.444 c 0,-0.945 -0.876,-0.63 -1.093,-0.531 l 0,-0.532 c 0.345,-0.206 1.782,-0.414 1.782,0.945 m -7.5051,3.5624 -1.909,-4.606 0.748,0 1.909,4.517 0,0.639 -3.06,0 0,1.753 -0.69,0 0,-2.303 3.002,0 z m -4.3901,-2.2537 0,2.804 -0.689,0 0,-3.178 0.689,0.374 z m -3.1699,2.8042 0,-2.499 c 0,-1.713 -0.945,-2.225 -2.224,-2.225 -1.29,0 -1.743,0.866 -1.792,1.319 0.679,0.02 1.388,0.267 1.683,0.453 0.256,0.158 0.64,0.482 0.64,1.318 l 0,1.634 -0.689,0 0,-1.683 c 0,-0.688 -0.177,-0.787 -0.512,-0.984 -0.305,-0.176 -0.964,-0.285 -1.181,-0.265 l 0,2.932 -0.688,0 0,-2.942 c 0,-1.379 0.954,-2.322 2.558,-2.322 1.821,0 2.894,0.777 2.894,2.804 l 0,2.46 -0.689,0 z m -8.5169,0 -1.752,0 0,-0.55 1.712,0 c 0.886,0 1.338,-0.63 1.338,-1.546 l 0,-3.06 0.69,0 0,2.961 c 0,1.743 -1.024,2.195 -1.988,2.195 m -4.1725,-2.9318 c 0.955,0.678 1.023,1.505 1.023,2.322 l 0,0.61 -0.708,0 0,-0.708 c 0,-0.532 0.01,-1.398 -0.63,-1.801 -0.147,0.148 -0.935,1.191 -2.106,2.509 l -0.925,0 c 0.778,-0.836 1.427,-1.643 1.427,-1.643 -0.413,-0.404 -0.669,-0.63 -0.905,-1.191 -0.325,-0.767 -0.256,-1.427 -0.266,-2.323 l 0.699,0 c 0,0 -0.04,1.546 0.236,2.225 0.138,0.343 0.305,0.619 0.59,0.885 1.516,-1.791 2.186,-3.11 2.186,-3.11 l 0.777,0 c 0,0 -0.492,0.965 -1.398,2.225 m -5.0695,2.3813 -1.909,-4.606 0.747,0 1.909,4.517 0,0.639 -3.06,0 0,1.753 -0.689,0 0,-2.303 3.002,0 z"
         style="fill:#221f20;fill-opacity:1;fill-rule:nonzero;stroke:none"
         id="path224" /><path
         id="path226"
         style="fill:#ffffff;fill-opacity:1;fill-rule:nonzero;stroke:none"
         d="m 418.464,981.572 72.08,0 0,-72.079 -72.08,0 0,72.079 z" /><path
         d="m 443.1185,938.27 25.136,43.302 22.289,0 -25.136,-43.302 -22.289,0 z m -16.7048,-28.777 15.321,26.391 0,-2.923 15.446,0 -9.908,-17.418 0,14.061 -5.538,0 0,-20.111 -15.321,0 z"
         style="fill:#51b848;fill-opacity:1;fill-rule:nonzero;stroke:none"
         id="path234" /><path
         d="m 447.2726,909.493 0,5.788 4.79,0 -3.36,-5.788 -1.43,0 z"
         style="fill:#51b848;fill-opacity:1;fill-rule:nonzero;stroke:none"
         id="path238" /><path
         d="m 471.76,909.493 0,5.788 5.668,0 13.115,22.699 0,-28.487 -18.783,0 z m 18.7835,28.777 -23.378,0 23.378,40.274 0,-40.274 z m -40.0831,-28.777 15.762,27.154 -10e-4,-3.686 15.447,0 -9.908,-17.418 0,14.061 -5.539,0 0,-20.111 -15.761,0 z"
         style="fill:#926427;fill-opacity:1;fill-rule:nonzero;stroke:none"
         id="path250" /><path
         d="m 418.464,981.5719 48.082,0 -25.139,-43.302 -18.195,0 0,5.803 -4.748,0 0,37.499 z m 9.596,-66.2906 -3.361,-5.788 -6.235,0 0,23.468 14.655,0 -10.057,-17.68 4.998,0 z"
         style="fill:#0572ba;fill-opacity:1;fill-rule:nonzero;stroke:none"
         id="path258" /><path
         d="m 435.7832,940.76 1.61,0 0,9.433 3.144,3.145 3.291,0 1.098,1.097 -3.584,0 2.706,2.705 5.265,0 1.317,1.317 -5.266,0 1.975,1.975 2.998,0 0,1.17 -1.828,0 2.34,2.34 0,1.682 -2.632,-2.632 0,3.143 -1.244,-1.242 0,-2.926 -1.901,-1.901 0,2.706 -1.317,-1.317 0,-2.852 -2.706,-2.706 0,2.853 -1.317,-1.317 0,-2.925 -2.486,-2.487 c 0.073,0.072 0,5.777 0,5.777 l 2.633,2.634 2.633,0 0,1.096 -1.828,0 5.412,5.412 3.949,0 0,1.097 -2.999,0 1.756,1.755 -0.439,0.952 -0.805,-0.805 0,2.267 -1.244,1.243 0,-4.754 -5.996,-5.996 0,2.998 -1.097,-1.097 0,-3.072 -2.048,-2.048 0,5.632 1.609,1.61 3.876,0 1.17,1.169 -4.242,0 2.121,2.121 3.219,0 0,1.17 -2.122,0 2.999,2.999 -1.023,0.951 -2.049,-2.048 0,2.779 -1.024,1.024 0,-5.338 -1.901,-1.902 0,3.657 -1.244,-1.244 0,-3.51 -1.316,-1.316 0,5.777 3.73,3.73 -1.536,0 -2.194,-2.194 0,2.779 -1.316,0 0,-2.779 -2.194,2.194 -1.536,0 3.73,-3.73 0,-5.777 -1.317,1.316 0,3.51 -1.243,1.244 0,-3.657 -1.902,1.902 0,5.338 -1.024,-1.024 0,-2.779 -2.047,2.048 -1.024,-0.951 2.998,-2.999 -2.12,0 0,-1.17 3.217,0 2.121,-2.121 -4.241,0 1.169,-1.169 3.877,0 1.609,-1.61 0,-5.632 -2.048,2.048 0,3.072 -1.097,1.097 0,-2.998 -5.997,5.996 0,4.754 -1.243,-1.243 0,-2.267 -0.805,0.805 -0.439,-0.952 1.756,-1.755 -2.999,0 0,-1.097 3.949,0 5.412,-5.412 -1.828,0 0,-1.096 2.633,0 2.633,-2.634 c 0,0 -0.074,-5.705 0,-5.777 l -2.487,2.487 0,2.925 -1.316,1.317 0,-2.853 -2.706,2.706 0,2.852 -1.317,1.317 0,-2.707 -1.901,1.902 0,2.926 -1.243,1.242 0,-3.143 -2.634,2.632 0,-1.682 2.341,-2.34 -1.829,0 0,-1.17 2.999,0 1.974,-1.975 -5.266,0 1.317,-1.317 5.266,0 2.706,-2.705 -3.583,0 1.097,-1.097 3.291,0 3.144,-3.145 0,-9.433 z"
         style="fill:#ffffff;fill-opacity:1;fill-rule:nonzero;stroke:none"
         id="path270" /><path
         d="m 418.3966,887.662 0.785,0 0,2.071 0.968,0.915 2.129,-2.986 1.053,0 -2.591,3.544 2.539,2.398 -1.126,0 -2.972,-2.909 0,2.909 -0.785,0 0,-5.942 z m 12.079,0 0.785,0 0,2.071 0.968,0.915 2.129,-2.986 1.053,0 -2.591,3.544 2.539,2.398 -1.126,0 -2.972,-2.909 0,2.909 -0.785,0 0,-5.942 z m 12.079,0 3.786,0 0,0.708 -2.981,0 0,5.234 -0.805,0 0,-5.942 z m 10.874,1.933 2.03,0 0,0.748 -2.03,0 0,-0.748 z m 12.52,4.009 -0.797,0 0,-3.96 c 0,-0.502 -0.04,-0.843 -0.121,-1.023 -0.133,-0.294 -0.414,-0.441 -0.843,-0.441 -0.306,0 -0.531,0.081 -0.675,0.244 -0.145,0.164 -0.217,0.407 -0.217,0.73 l 0,0.425 -0.757,0 0,-0.425 c 0,-0.617 0.158,-1.046 0.474,-1.288 0.316,-0.241 0.697,-0.362 1.142,-0.362 0.772,0 1.296,0.254 1.571,0.761 0.149,0.277 0.223,0.667 0.223,1.169 l 0,4.17 z m 7.776,-5.942 0.768,0 0,4.795 3.007,-4.795 0.904,0 0,5.942 -0.768,0 0,-4.801 -2.963,4.801 -0.948,0 0,-5.942 z m 12.613,0 0.805,0 0,2.702 2.916,0 0,0.708 -2.916,0 0,1.804 3.316,0 0,0.728 -4.121,0 0,-5.942 z m -67.941,0 0.785,0 0,2.071 0.968,0.915 2.129,-2.986 1.053,0 -2.591,3.544 2.539,2.398 -1.126,0 -2.972,-2.909 0,2.909 -0.785,0 0,-5.942 z m 12.079,0 0.785,0 0,2.071 0.968,0.915 2.129,-2.986 1.053,0 -2.591,3.544 2.539,2.398 -1.126,0 -2.972,-2.909 0,2.909 -0.785,0 0,-5.942 z m 12.079,0 3.786,0 0,0.708 -2.981,0 0,5.234 -0.805,0 0,-5.942 z m 10.874,1.933 2.03,0 0,0.748 -2.03,0 0,-0.748 z m 12.52,4.009 -0.797,0 0,-3.96 c 0,-0.502 -0.04,-0.843 -0.121,-1.023 -0.133,-0.294 -0.414,-0.441 -0.843,-0.441 -0.306,0 -0.531,0.081 -0.675,0.244 -0.145,0.164 -0.217,0.407 -0.217,0.73 l 0,0.425 -0.757,0 0,-0.425 c 0,-0.617 0.158,-1.046 0.474,-1.288 0.316,-0.241 0.697,-0.362 1.142,-0.362 0.772,0 1.296,0.254 1.571,0.761 0.149,0.277 0.223,0.667 0.223,1.169 l 0,4.17 z m 7.776,-5.942 0.768,0 0,4.795 3.007,-4.795 0.904,0 0,5.942 -0.768,0 0,-4.801 -2.963,4.801 -0.948,0 0,-5.942 z m 12.613,0 0.805,0 0,2.702 2.916,0 0,0.708 -2.916,0 0,1.804 3.316,0 0,0.728 -4.121,0 0,-5.942 z"
         style="fill:#000000;stroke:none"
         id="path278" /></g></g></svg>