<?xml version="1.0" encoding="UTF-8"?>
<svg id="Layer_1" xmlns="http://www.w3.org/2000/svg" xmlns:xlink="http://www.w3.org/1999/xlink" version="1.1" viewBox="0 0 1920 1080">
  <!-- Generator: Adobe Illustrator 29.5.0, SVG Export Plug-In . SVG Version: 2.1.0 Build 137)  -->
  <defs>
    <style>
      .st0, .st1 {
        fill: none;
      }

      .st2 {
        font-family: FbTamlil-Regular, 'Fb Tamlil';
        font-size: 54.45px;
      }

      .st2, .st3 {
        fill: #5d9f44;
      }

      .st4 {
        fill: url(#radial-gradient);
      }

      .st5 {
        font-family: FbTamlil-Light, 'Fb Tamlil';
        font-size: 127.46px;
        font-weight: 300;
      }

      .st5, .st6 {
        fill: #2f6845;
      }

      .st7 {
        clip-path: url(#clippath-1);
      }

      .st8 {
        clip-path: url(#clippath-3);
      }

      .st9 {
        clip-path: url(#clippath-4);
      }

      .st10 {
        clip-path: url(#clippath-2);
      }

      .st11 {
        clip-path: url(#clippath-5);
      }

      .st12 {
        fill: #dd883f;
      }

      .st13 {
        fill: #7db269;
      }

      .st14 {
        fill: url(#radial-gradient1);
      }

      .st15 {
        fill: url(#radial-gradient2);
      }

      .st16 {
        letter-spacing: -.05em;
      }

      .st17 {
        letter-spacing: -.05em;
      }

      .st18 {
        fill: #76b82a;
      }

      .st19 {
        letter-spacing: -.01em;
      }

      .st20 {
        letter-spacing: 0em;
      }

      .st21 {
        clip-path: url(#clippath);
      }

      .st1 {
        stroke: #5d9f44;
        stroke-width: .5px;
      }
    </style>
    <clipPath id="clippath">
      <rect class="st0" x="8.21" y="4.75" width="1903.57" height="1631.63"/>
    </clipPath>
    <clipPath id="clippath-1">
      <rect class="st0" x="8.21" y="4.75" width="1903.57" height="1631.63"/>
    </clipPath>
    <clipPath id="clippath-2">
      <path class="st0" d="M1261.59,505.04c-4.49-7.28-4.26-14.55-5.86-9.54-18,56.4,27.57,111.96,70.57,146.15-10.08-43.71-13.65-103.19,20.08-152.19-58.3,38.9-77.6,27.24-84.79,15.58"/>
    </clipPath>
    <radialGradient id="radial-gradient" cx="469.07" cy="963.53" fx="469.07" fy="963.53" r="1.92" gradientTransform="translate(-17303.94 61982.86) scale(39.66 -63.74)" gradientUnits="userSpaceOnUse">
      <stop offset="0" stop-color="#306844"/>
      <stop offset=".18" stop-color="#3e7944"/>
      <stop offset=".46" stop-color="#4f8e44"/>
      <stop offset=".74" stop-color="#599a44"/>
      <stop offset="1" stop-color="#5d9f44"/>
    </radialGradient>
    <clipPath id="clippath-3">
      <path class="st0" d="M1501.92,487.29c45.87,62.53,52.9,119.21,48.35,160.42,47.59-33.81,78.64-89.38,78.64-152.21,0-5.51-.24-10.97-.71-16.35-53.15,46.76-102.72,16.61-137.15-8.51,3,5.27,6.61,10.86,10.86,16.65"/>
    </clipPath>
    <radialGradient id="radial-gradient1" cx="471.2" cy="963.39" fx="471.2" fy="963.39" r="1.92" gradientTransform="translate(-20183.19 57658.27) scale(46.14 -59.27)" xlink:href="#radial-gradient"/>
    <clipPath id="clippath-4">
      <path class="st0" d="M1332.52,535.11c70.59,27.14,69.08,114.2,67.83,133.51l1.26-1.61c32.6-41.61,34.2-92.16,4.91-150.57-13.96,20.71-48.37,23.36-74,18.67"/>
    </clipPath>
    <radialGradient id="radial-gradient2" cx="470.04" cy="963.32" fx="470.04" fy="963.32" r="1.92" gradientTransform="translate(-17260.86 61904.89) scale(39.66 -63.65)" xlink:href="#radial-gradient"/>
    <clipPath id="clippath-5">
      <rect class="st0" x="8.21" y="4.75" width="1903.57" height="1631.63"/>
    </clipPath>
  </defs>
  <g class="st21">
    <path class="st12" d="M233.01,597.09c8.56,0,15.51-6.94,15.51-15.51s-6.94-15.51-15.51-15.51-15.51,6.94-15.51,15.51,6.94,15.51,15.51,15.51"/>
  </g>
  <text class="st5" transform="translate(254.89 597.09) scale(1 1.05)"><tspan class="st17" x="0" y="0">תי</tspan><tspan class="st16" x="139.43" y="0">נ</tspan><tspan class="st17" x="193.93" y="0">ופצה הריחב</tspan><tspan x="866.49" y="0">ה</tspan></text>
  <text class="st2" transform="translate(408.83 677.53) scale(1 1.01)"><tspan class="st20" x="0" y="0">הנומש תיירקל ונתיא ו</tspan><tspan class="st19" x="555.53" y="0">א</tspan><tspan class="st20" x="591.11" y="0">ו</tspan><tspan x="610.16" y="0">ב</tspan></text>
  <polyline class="st1" points="1100.53 458.12 182.74 458.12 182.74 707.24 1385.4 707.24"/>
  <g class="st7">
    <path class="st3" d="M1553.55,423.82s11.49,12.17,23.64,9.36c14.23-3.29,26.69,2.15,26.69,2.15-.32-5.85-17.28-31.5-42.59-22.21,11.45-.63,21.89,5.92,24.97,11.22-7.07-7.15-24.52-7.02-32.71-.53"/>
    <path class="st3" d="M1512.42,351.51s-11.94-11.73-8.9-23.82c3.56-14.17-1.63-26.72-1.63-26.72,5.84.43,31.16,17.89,21.37,43.01.85-11.43-5.5-22-10.73-25.19,7.01,7.21,6.54,24.66-.11,32.72"/>
    <path class="st3" d="M1392.2,294.84s-15.83,5.43-25.28-2.7c-11.07-9.53-24.63-10.5-24.63-10.5,3-5.03,29.94-19.86,48.03.13-9.85-5.88-22.14-4.93-27.33-1.67,9.58-3.04,24.98,5.18,29.21,14.74"/>
    <path class="st3" d="M1419.95,296.81s-16.12-4.51-19.29-16.57c-3.72-14.13-14.32-22.62-14.32-22.62,5.33-2.44,35.93.63,39.48,27.35-4.78-10.42-15.43-16.62-21.56-16.88,9.62,2.93,17.63,18.43,15.69,28.71"/>
    <path class="st3" d="M1320.27,393.38s-5.98,15.63-18.28,17.67c-14.41,2.39-23.85,12.17-23.85,12.17-1.94-5.53,3.95-35.71,30.89-36.78-10.82,3.79-17.97,13.83-18.8,19.9,3.81-9.31,19.99-15.85,30.03-12.97"/>
    <path class="st3" d="M1240.08,433.69s-13,10.55-24.67,6.16c-13.67-5.14-26.73-1.39-26.73-1.39,1.09-5.76,21.28-28.95,45.15-16.39-11.27-2.13-22.48,2.98-26.24,7.83,7.95-6.15,25.24-3.73,32.49,3.8"/>
    <path class="st3" d="M1262.15,395.56s-14.97,8.74-26.22,2.4c-13.18-7.42-27.14-5.65-27.14-5.65,2.02-5.72,26.36-26.26,48.79-9.63-11.19-3.96-23.48-.5-28.08,3.86,9.11-5.04,26.41.18,32.65,9.02"/>
    <path class="st3" d="M1534.25,360.69s14.6,8.19,25.36,1.89c12.61-7.38,26.11-5.91,26.11-5.91-2.05-5.49-25.89-24.92-47.28-8.49,10.74-4.01,22.66-.87,27.18,3.26-8.88-4.71-25.5.61-31.38,9.25"/>
    <path class="st3" d="M1537.23,328.65s16.61,2.08,24.2-7.81c8.89-11.59,21.96-15.31,21.96-15.31-3.97-4.32-33.37-13.32-46.99,9.95,8.44-7.76,20.66-9.35,26.41-7.22-10-1.02-23.39,10.18-25.58,20.4"/>
    <path class="st3" d="M1438.14,306.77s16.73-.26,22.87-11.11c7.19-12.72,19.61-18.23,19.61-18.23-4.53-3.72-34.9-8.53-45.14,16.41,7.27-8.87,19.15-12.15,25.14-10.84-10.05.39-21.74,13.34-22.48,23.77"/>
    <path class="st3" d="M1359.75,351.81s11.13-12.5,7.29-24.36c-4.5-13.9-.16-26.77-.16-26.77-5.8.82-29.9,19.93-18.46,44.34-1.61-11.35,4.02-22.32,9.03-25.85-6.51,7.66-4.89,25.04,2.29,32.64"/>
    <path class="st3" d="M1174.44,449.24s-9.94-13.47-22.34-12.15c-14.53,1.54-26.23-5.36-26.23-5.36-.39,5.85,13.34,33.36,39.59,27.19-11.44-.77-21.01-8.53-23.43-14.16,6.16,7.95,23.49,9.94,32.41,4.48"/>
    <path class="st13" d="M1167.39,455.61c1.11,2.29,11.7,9.63,39.63.57,27.37-8.88,32.98-5.98,53.44-2.66.42.07.84.14,1.28.21,21.51,3.4,14.34-5.29,32.83-7.55,18.49-2.26,98.12,4.84,113.97,29.44,27.63,42.89,70.93,127.88,10.48,205.04,7.63.95,15.4,1.44,23.3,1.44,29.88,0,58.12-7.02,83.16-19.52,8.22-38.19,7-96.22-41.4-162.21-10.32-14.06-61.3-87.7,13.25-96.22,52.19-5.96,64.96,5.76,86.06-6.71-17.51,4.58-30.86,0-30.86,0,13.14-9.98,12.07-26.83,12.07-26.83-2.94,1-4.21,19.92-26.84,22.81-11.16,1.42-20.38-.3-24.22-12.07-2.14-6.56,6.31-27.88,22.88-28.18-7.49-3.93-19.49,3.38-33.54,21.47-18.63,23.97-39.46,20.14-42.93,16.1-6.81-7.92-6.32-15.57,17.44-34.89,19.19-15.6,2.68-30.86,2.68-30.86,7.05,17.92-9.87,30.72-20.61,32.06,2.09-27.06-8.95-37.14-9.27-37.42,6.31,14.62,4.47,31.03-11.64,47.13-17.44-13.41-22.05-19.38-16.19-40.43,1.97-7.08,4.34-12.66,6.64-16.96,4.76-8.92,9.25-12.4,9.46-12.55-4.67,1.57-11.31,7.7-16.02,13.14h0c-2.43,2.81-4.36,5.45-5.23,7.16-.89-2.27-1.79-4.31-2.73-6.14h0c-4.2-8.2-9.21-12.2-18.4-14.16,6.12,3.04,10.37,8.23,12.77,15.08,2.73,7.73,3.1,17.59,1.2,28.9-12.66-3.17-20.01-12.36-21.9-19.15,1.09,8.97.91,17.35,28.68,36.23,27.17,18.46,28.27,45.84,13.21,68.3-20.38-11.32-37.55-22.22-42.49-36.23-5.18-14.68-20.99-32.69-38.64-35.1,19.06,8.63,26.42,24.91,26.42,28.69-15.31-6.64-57.96-5.37-71.7,8.67,15.65-6.66,58.72-15.94,74.34,2.65,11.22,13.35,13.21,44.53-16.6,44.15-29.81-.38-31.56-14.65-76.23-8.68-7.28.97-12.94.68-17.69-.07-11.87-1.86-18.22-6.55-30.62-1.44,19.09-2.2,17.73,4.68,27.73,9.79,2.29,1.18,5.18,2.25,9.06,3.11-2.45.18-5.9.11-10.03.03-13.74-.24-35.1-.49-52.79,8.2-23.02,11.32-43.4,5.66-43.4,5.66"/>
    <path class="st18" d="M1429.55,279.94c-.85.83-3.59-11.67-.18-25.31.6-2.42-.76-2.16-3.64-8.12-.41-.85-1.61-2.73-2.04-3.88-5.73-15.28,4.33,5.35,14.13,5.16,9.89-.19,14.36-9.14,15.67-9.36,2.05-.35-4.06,10.92-6.5,15.22-2.43,4.31,2.99,6.43-5.35,27.57-1.41,3.58-2.1-14.9-5.73-15.28,0,0-5.52,13.18-6.37,14.01"/>
    <path class="st18" d="M1439.66,245.53c3.21-.55,5.46-3.68,4.97-6.9-.5-3.27-4.06-5.92-7.2-5.37-3.28.58-5.7,4.03-5.15,7.33.56,3.34,3.86,5.55,7.38,4.94"/>
    <path class="st6" d="M1435.95,265.1s-4.79,11.68-5.54,12.41c-.75.73-3.24-10.28-.31-22.36.52-2.15-.68-1.9-3.26-7.15-.37-.75-1.44-2.41-1.82-3.42-5.15-13.47,3.86,4.7,12.52,4.47"/>
    <path class="st3" d="M1437.53,249.05c8.74-.23,12.63-8.16,13.78-8.36,1.81-.32-3.52,9.66-5.65,13.48-2.12,3.82,2.68,5.66-4.56,24.39-1.23,3.17-1.94-13.15-5.15-13.47"/>
    <path class="st18" d="M1343.84,357.52c.48,1.09-12.19-.7-23.79-8.65-2.06-1.41-2.29-.04-8.88.58-.95.09-3.12.55-4.35.55-16.32.05,6.52-2.19,9.76-11.45,3.27-9.34-3.56-16.64-3.31-17.94.39-2.04,8.81,7.61,12,11.39,3.19,3.78,7.07-.56,23.98,14.62,2.86,2.57-14.7-3.22-16.32.04,0,0,10.43,9.77,10.91,10.85"/>
    <path class="st18" d="M1315.12,336.05c.6-3.2-1.54-6.4-4.73-7.06-3.24-.67-6.97,1.74-7.55,4.88-.6,3.27,1.79,6.75,5.07,7.38,3.33.64,6.55-1.68,7.21-5.2"/>
    <path class="st6" d="M1332.17,346.36s9.28,8.57,9.7,9.52c.43.96-10.77-.55-21.07-7.5-1.83-1.23-2.02-.02-7.84.56-.83.08-2.75.51-3.84.52-14.42.14,5.75-1.98,8.56-10.17"/>
    <path class="st3" d="M1317.68,339.28c2.83-8.27-3.24-14.68-3.04-15.83.33-1.8,7.83,6.67,10.67,9.99,2.84,3.32,6.24-.54,21.27,12.78,2.54,2.25-13-2.76-14.42.14"/>
    <path class="st18" d="M1580.36,392.52c-1.1-.43,9.11-8.12,22.94-10.7,2.45-.46,1.65-1.59,5.87-6.69.6-.73,1.82-2.6,2.68-3.47,11.51-11.57-3.06,6.16,1.19,15,4.3,8.92,14.29,9.25,15.03,10.35,1.17,1.72-11.62.85-16.54.43-4.93-.42-4.6,5.4-27.3,6.62-3.84.21,12.67-8.11,11.51-11.57,0,0-14.28.47-15.39.04"/>
    <path class="st18" d="M1615.85,387.39c1.84,2.69,5.61,3.43,8.34,1.64,2.76-1.81,3.7-6.16,1.89-8.78-1.89-2.74-6.03-3.51-8.8-1.63-2.81,1.9-3.44,5.82-1.42,8.77"/>
    <path class="st6" d="M1596.51,392.16s-12.62.5-13.6.13c-.98-.37,8-7.23,20.2-9.59,2.17-.42,1.45-1.41,5.14-5.94.53-.65,1.59-2.31,2.35-3.08,10.1-10.29-2.67,5.46,1.15,13.24"/>
    <path class="st3" d="M1611.76,386.91c3.85,7.85,12.68,8.09,13.34,9.05,1.05,1.51-10.25.82-14.61.48-4.35-.34-4.03,4.8-24.08,6.01-3.39.21,11.15-7.24,10.1-10.29"/>
  </g>
  <g class="st10">
    <rect class="st4" x="1237.73" y="489.45" width="108.65" height="152.19"/>
  </g>
  <g class="st8">
    <rect class="st14" x="1491.05" y="470.64" width="137.86" height="177.07"/>
  </g>
  <g class="st9">
    <rect class="st15" x="1332.52" y="516.45" width="103.3" height="152.18"/>
  </g>
  <g class="st11">
    <path class="st6" d="M1356.62,511.5c0,8.89,7.21,16.1,16.1,16.1s16.1-7.21,16.1-16.1-7.21-16.1-16.1-16.1-16.1,7.21-16.1,16.1"/>
    <path class="st6" d="M1271.52,489.45c0,8.89,7.21,16.1,16.1,16.1s16.1-7.21,16.1-16.1-7.21-16.1-16.1-16.1-16.1,7.21-16.1,16.1"/>
    <path class="st6" d="M1546.52,473.35c0,8.89,7.21,16.1,16.1,16.1s16.1-7.21,16.1-16.1-7.21-16.1-16.1-16.1-16.1,7.21-16.1,16.1"/>
  </g>
</svg>